<svg width="25" height="25" viewBox="0 0 25 25" fill="none" xmlns="http://www.w3.org/2000/svg">
<g clip-path="url(#clip0_1_8)">
<path d="M6.94444 20.8333C5.83333 20.8333 4.72222 19.8611 4.16667 19.4444C1.38889 17.5 0.555556 16.8056 4.76837e-07 16.3889V22.2222C4.76837e-07 22.9891 0.621962 23.6111 1.38889 23.6111H12.5C13.2669 23.6111 13.8889 22.9891 13.8889 22.2222V16.3889C13.3333 16.8056 12.5 17.5 9.72222 19.4444C9.16667 19.8611 8.05556 20.8333 6.94444 20.8333ZM12.5 12.5H1.38889C0.621962 12.5 4.76837e-07 13.122 4.76837e-07 13.8889V14.5833C1.11111 15.4167 0.972222 15.4167 5 18.3333C5.41667 18.6111 6.25 19.4444 6.94444 19.4444C7.63889 19.4444 8.47222 18.6111 8.88889 18.4722C12.9167 15.5556 12.7778 15.5556 13.8889 14.7222V13.8889C13.8889 13.122 13.2669 12.5 12.5 12.5ZM23.6111 8.33333H9.72222C8.9553 8.33333 8.33333 8.9553 8.33333 9.72222V11.1111H12.5C13.9414 11.1111 15.1298 12.2144 15.2652 13.6207L15.2778 13.6111V19.4444H23.6111C24.378 19.4444 25 18.8225 25 18.0556V9.72222C25 8.9553 24.378 8.33333 23.6111 8.33333ZM22.2222 13.8889H19.4444V11.1111H22.2222V13.8889ZM6.94444 9.72222C6.94444 8.19054 8.19054 6.94444 9.72222 6.94444H19.4444V2.77778C19.4444 2.01085 18.8225 1.38889 18.0556 1.38889H4.16667C3.39974 1.38889 2.77778 2.01085 2.77778 2.77778V11.1111H6.94444V9.72222Z" fill="#FFB160"/>
</g>
<defs>
<clipPath id="clip0_1_8">
<rect width="25" height="25" fill="white"/>
</clipPath>
</defs>
</svg>
